Coordinates
version=1
nRows=16
nColumns=63
inDegrees=yes

Units are S.I. units (second, meters, Newtons, ...)
If the header above contains a line with 'inDegrees', this indicates whether rotational values are in degrees (yes) or radians (no).

endheader
time	pelvis_tilt	pelvis_list	pelvis_rotation	pelvis_tx	pelvis_ty	pelvis_tz	hip_flexion_r	hip_adduction_r	hip_rotation_r	knee_angle_r	knee_angle_r_beta	ankle_angle_r	subtalar_angle_r	mtp_angle_r	hip_flexion_l	hip_adduction_l	hip_rotation_l	knee_angle_l	knee_angle_l_beta	ankle_angle_l	subtalar_angle_l	mtp_angle_l	L5_S1_Flex_Ext	L5_S1_Lat_Bending	L5_S1_axial_rotation	L4_L5_Flex_Ext	L4_L5_Lat_Bending	L4_L5_axial_rotation	L3_L4_Flex_Ext	L3_L4_Lat_Bending	L3_L4_axial_rotation	L2_L3_Flex_Ext	L2_L3_Lat_Bending	L2_L3_axial_rotation	L1_L2_Flex_Ext	L1_L2_Lat_Bending	L1_L2_axial_rotation	L1_T12_Flex_Ext	L1_T12_Lat_Bending	L1_T12_axial_rotation	Abs_r3	Abs_r2	Abs_r1	Abs_t1	Abs_t2	neck_flexion	neck_bending	neck_rotation	arm_flex_r	arm_add_r	arm_rot_r	elbow_flex_r	pro_sup_r	wrist_flex_r	wrist_dev_r	arm_flex_l	arm_add_l	arm_rot_l	elbow_flex_l	pro_sup_l	wrist_flex_l	wrist_dev_l
0.000000	0.762358	-4.818178	100.663235	0.265213	0.722066	0.882166	1.166626	1.590929	-14.421501	7.529143	0.131408	25.781879	11.335520	0.000000	0.853626	-0.183530	7.757029	4.844896	0.084559	22.886706	-8.311007	0.000000	0.111124	0.122843	-0.585562	0.206369	0.163381	-0.622159	0.182566	0.298679	-0.622159	0.127004	0.298679	-0.512367	0.103190	0.250501	-0.475769	0.063496	0.190283	-0.439171	0.793748	1.389620	-3.256719	0.000000	0.000000	25.234668	-2.743808	-1.060753	12.729629	-4.983811	65.715672	44.560128	81.923853	4.624270	4.514976	8.624988	-8.890283	56.774684	48.024372	87.332466	-10.460353	4.333396
0.017857	0.674831	-4.652716	100.441924	0.265103	0.722464	0.881781	0.691804	1.476159	-14.554346	7.193603	0.125552	24.907278	11.788648	0.000000	0.640893	-0.112712	7.701509	4.892394	0.085388	22.734634	-8.603159	0.000000	0.118772	0.110317	-0.573520	0.220571	0.146722	-0.609366	0.195130	0.268225	-0.609366	0.135744	0.268225	-0.501830	0.110292	0.224959	-0.465985	0.067866	0.170881	-0.430140	0.848376	1.247929	-3.189749	0.000000	0.000000	24.530095	-2.360946	-0.909771	12.792134	-4.936553	66.176567	44.237562	83.029819	4.870763	4.188441	8.182829	-8.934476	55.701885	48.258175	86.712455	-9.349341	4.688670
0.035714	0.593381	-4.524750	100.258610	0.265038	0.722775	0.881499	0.300883	1.376429	-14.634979	6.892112	0.120290	24.200409	12.167551	0.000000	0.478201	-0.046156	7.592126	4.932670	0.086091	22.637243	-8.763209	0.000000	0.124860	0.098773	-0.563824	0.231877	0.131369	-0.599063	0.205132	0.240158	-0.599063	0.142702	0.240158	-0.493346	0.115945	0.201419	-0.458107	0.071345	0.153000	-0.422868	0.891859	1.117345	-3.135819	0.000000	0.000000	23.962161	-2.046147	-0.799973	12.850372	-4.888933	66.515123	43.980944	83.487893	5.016371	3.977715	7.871978	-8.982917	55.007880	48.416178	86.208066	-8.655115	4.898108
0.053571	0.518396	-4.430451	100.110119	0.265013	0.723008	0.881309	-0.013666	1.291675	-14.665080	6.621922	0.115574	23.645810	12.472905	0.000000	0.360420	0.015692	7.437878	4.966510	0.086682	22.588368	-8.807983	0.000000	0.129544	0.088238	-0.556254	0.240576	0.117357	-0.591019	0.212828	0.214543	-0.591019	0.148056	0.214543	-0.486722	0.120295	0.179936	-0.451956	0.074021	0.136681	-0.417190	0.925320	0.998170	-3.093716	0.000000	0.000000	23.519649	-1.793690	-0.725887	12.904490	-4.841548	66.744777	43.783779	83.387113	5.071228	3.868115	7.679391	-9.034267	54.650817	48.506168	85.808810	-8.326112	4.981078
0.071429	0.450263	-4.365988	99.993279	0.265023	0.723169	0.881200	-0.259372	1.221832	-14.646333	6.380288	0.111357	23.228021	12.705386	0.000000	0.282416	0.072389	7.247765	4.994699	0.087174	22.581840	-8.754305	0.000000	0.132983	0.078739	-0.550591	0.246962	0.104722	-0.585003	0.218477	0.191445	-0.585003	0.151986	0.191445	-0.481768	0.123488	0.160564	-0.447356	0.075986	0.121966	-0.412944	0.949883	0.890708	-3.062225	0.000000	0.000000	23.191341	-1.597855	-0.682039	12.954635	-4.794997	66.878966	43.639574	82.816515	5.045470	3.844953	7.592022	-9.087189	54.588845	48.535930	85.504199	-8.310767	4.956946
0.089286	0.389368	-4.327530	99.904916	0.265062	0.723268	0.881160	-0.443763	1.166834	-14.580419	6.164464	0.107590	22.931580	12.865668	0.000000	0.239060	0.123488	7.030787	5.018024	0.087581	22.611493	-8.619000	0.000000	0.135333	0.070301	-0.546619	0.251327	0.093501	-0.580783	0.222339	0.170930	-0.580783	0.154672	0.170930	-0.478292	0.125670	0.143358	-0.444128	0.077329	0.108896	-0.409964	0.966670	0.795261	-3.040132	0.000000	0.000000	22.966021	-1.452921	-0.662957	13.000953	-4.749876	66.931126	43.541835	81.865138	4.949229	3.893546	7.596826	-9.140345	54.780111	48.513251	85.283743	-8.557518	4.845082
0.107143	0.336100	-4.311249	99.841857	0.265125	0.723311	0.881179	-0.574370	1.126617	-14.469022	5.971704	0.104226	22.741028	12.954429	0.000000	0.225219	0.168546	6.795942	5.037268	0.087917	22.671159	-8.418893	0.000000	0.136752	0.062952	-0.544118	0.253962	0.083727	-0.578126	0.224670	0.153063	-0.578126	0.156294	0.153063	-0.476104	0.126988	0.128373	-0.442096	0.078140	0.097513	-0.408089	0.976805	0.712131	-3.026224	0.000000	0.000000	22.832469	-1.353168	-0.663166	13.043592	-4.706784	66.914695	43.484066	80.622018	4.792642	3.999208	7.680758	-9.192398	55.182763	48.445916	85.136956	-9.014799	4.664854
0.125000	0.290847	-4.313313	99.800930	0.265208	0.723307	0.881243	-0.658721	1.101117	-14.313823	5.799260	0.101216	22.640902	12.972344	0.000000	0.235762	0.207116	6.552231	5.053220	0.088195	22.754671	-8.170808	0.000000	0.137397	0.056719	-0.542871	0.255160	0.075437	-0.576801	0.225729	0.137908	-0.576801	0.157031	0.137908	-0.475012	0.127587	0.115662	-0.441083	0.078509	0.087858	-0.407153	0.981412	0.641622	-3.019286	0.000000	0.000000	22.779470	-1.292876	-0.677194	13.082698	-4.666319	66.843108	43.459776	79.176192	4.585843	4.147253	7.830774	-9.242009	55.754948	48.341712	85.053346	-9.631049	4.435629
0.142857	0.253994	-4.329892	99.778962	0.265304	0.723264	0.881343	-0.704346	1.090268	-14.116504	5.644388	0.098513	22.615742	12.920088	0.000000	0.265559	0.238755	6.308652	5.066662	0.088430	22.855862	-7.891569	0.000000	0.137425	0.051629	-0.542659	0.255212	0.068666	-0.576575	0.225775	0.125530	-0.576575	0.157063	0.125530	-0.474826	0.127613	0.105282	-0.440910	0.078525	0.079973	-0.406994	0.981612	0.584036	-3.018105	0.000000	0.000000	22.795804	-1.266323	-0.699567	13.118418	-4.629077	66.729803	43.462468	77.616699	4.338966	4.322998	8.033827	-9.287842	56.454816	48.208424	85.022428	-10.354702	4.176776
0.160714	0.225931	-4.357156	99.772778	0.265408	0.723190	0.881466	-0.718774	1.094006	-13.878749	5.504341	0.096069	22.650086	12.798338	0.000000	0.309477	0.263016	6.074205	5.078383	0.088634	22.968566	-7.598002	0.000000	0.136993	0.047707	-0.543263	0.254410	0.063451	-0.577217	0.225067	0.115996	-0.577217	0.156570	0.115996	-0.475355	0.127212	0.097285	-0.441401	0.078278	0.073899	-0.407447	0.978530	0.539676	-3.021467	0.000000	0.000000	22.870256	-1.267789	-0.724813	13.150898	-4.595656	66.588216	43.485650	76.032574	4.062146	4.511756	8.276873	-9.328557	57.240513	48.053839	85.033711	-11.134195	3.907664
0.178571	0.207043	-4.391275	99.779206	0.265516	0.723092	0.881602	-0.709534	1.112265	-13.602238	5.376372	0.093835	22.728475	12.607769	0.000000	0.362385	0.279456	5.857889	5.089166	0.088823	23.086613	-7.306931	0.000000	0.136260	0.044982	-0.544466	0.253048	0.059826	-0.578495	0.223861	0.109369	-0.578495	0.155731	0.109369	-0.476408	0.126531	0.091727	-0.442379	0.077859	0.069677	-0.408350	0.973289	0.508845	-3.028158	0.000000	0.000000	22.991607	-1.291554	-0.747457	13.180286	-4.566655	66.431783	43.522828	74.512855	3.765518	4.698842	8.546867	-9.362818	58.070188	47.885743	85.076707	-11.917964	3.647659
0.196429	0.190069	-4.427247	99.791933	0.265652	0.722958	0.881694	-0.711029	1.147843	-13.152817	5.225040	0.091194	22.809203	12.147043	0.000000	0.414602	0.293108	5.666526	5.108699	0.089164	23.200562	-7.042322	0.000000	0.135582	0.042203	-0.548783	0.251790	0.056130	-0.583082	0.222748	0.102612	-0.583082	0.154957	0.102612	-0.480185	0.125902	0.086060	-0.445886	0.077472	0.065372	-0.411587	0.968450	0.477407	-3.052168	0.000000	0.000000	23.144676	-1.328841	-0.763714	13.234243	-4.536254	66.372849	43.564213	74.042209	3.503962	4.765258	8.748586	-9.426698	58.639349	47.828682	85.113090	-12.364623	3.539773
0.214286	0.183198	-4.457605	99.811335	0.265747	0.722834	0.881787	-0.697848	1.190343	-12.757862	5.098923	0.088993	22.903562	11.735593	0.000000	0.459625	0.304462	5.623337	5.129346	0.089524	23.265072	-6.969927	0.000000	0.135429	0.040655	-0.553436	0.251505	0.054071	-0.588025	0.222496	0.098847	-0.588025	0.154781	0.098847	-0.484256	0.125759	0.082903	-0.449667	0.077384	0.062974	-0.415077	0.967353	0.459892	-3.078044	0.000000	0.000000	23.323166	-1.374773	-0.759302	13.270448	-4.506634	66.268179	43.584629	74.116352	3.248626	4.786614	8.957995	-9.447743	59.143352	47.733083	85.197397	-12.657600	3.556681
0.232143	0.194546	-4.472467	99.815234	0.265837	0.722733	0.881807	-0.707442	1.267965	-12.202682	4.936115	0.086151	22.947356	11.143042	0.000000	0.475758	0.294096	5.575793	5.135509	0.089632	23.315656	-6.896681	0.000000	0.136076	0.041346	-0.551469	0.252708	0.054991	-0.585936	0.223560	0.100529	-0.585936	0.155522	0.100529	-0.482536	0.126361	0.084313	-0.448069	0.077754	0.064045	-0.413602	0.971981	0.467717	-3.067107	0.000000	0.000000	23.509645	-1.423273	-0.723679	13.282100	-4.491247	66.173926	43.581974	74.276405	2.979557	4.737745	9.203600	-9.439666	59.703672	47.585580	85.200989	-12.809331	3.608925
0.250000	0.223533	-4.474574	99.824075	0.265879	0.722654	0.881797	-0.719933	1.361139	-11.715770	4.783155	0.083482	22.977513	10.628182	0.000000	0.478130	0.267856	5.588757	5.142730	0.089758	23.343874	-6.893829	0.000000	0.137072	0.044507	-0.549513	0.254557	0.059194	-0.583857	0.225196	0.108214	-0.583857	0.156660	0.108214	-0.480824	0.127285	0.090759	-0.446479	0.078323	0.068941	-0.412135	0.979095	0.503472	-3.056225	0.000000	0.000000	23.700098	-1.474123	-0.635866	13.284753	-4.489111	66.111012	43.569661	74.433470	2.706714	4.661024	9.443665	-9.405566	60.227011	47.413219	85.169291	-12.876468	3.670605
0.267857	0.269006	-4.467186	99.825758	0.265881	0.722593	0.881758	-0.729524	1.464670	-11.273602	4.649549	0.081150	22.988262	10.170081	0.000000	0.460200	0.235954	5.791677	5.130552	0.089545	23.298742	-7.167410	0.000000	0.138496	0.050054	-0.546518	0.257202	0.066572	-0.580676	0.227536	0.121701	-0.580676	0.158288	0.121701	-0.478203	0.128608	0.102070	-0.444046	0.079137	0.077533	-0.409889	0.989266	0.566219	-3.039570	0.000000	0.000000	23.882545	-1.519438	-0.500599	13.285350	-4.501972	66.100910	43.552734	74.369103	2.455694	4.582479	9.650174	-9.353634	60.655515	47.243344	85.148449	-12.886427	3.735149
